<mxfile host="app.diagrams.net" modified="2023-11-07T17:40:14.979Z" agent="Mozilla/5.0 (X11; Ubuntu; Linux x86_64; rv:109.0) Gecko/20100101 Firefox/119.0" etag="o3UoCmdsrXJP79GXihg_" version="22.0.8" type="device">
  <diagram name="Page-1" id="IQFzwWVIoBJDt1kDczub">
    <mxGraphModel dx="1323" dy="732" grid="1" gridSize="10" guides="1" tooltips="1" connect="1" arrows="1" fold="1" page="1" pageScale="1" pageWidth="850" pageHeight="1100" math="0" shadow="0">
      <root>
        <mxCell id="0" />
        <mxCell id="1" parent="0" />
        <mxCell id="AyuZund40e7lfLbwNVDC-70" value="&lt;br&gt;&lt;p&gt;&lt;b&gt;Figure 1.&lt;/b&gt; Confirmatory factor analysis model of Gopi Krishna&#39;s concept of Higher Consciousness. Latent factors with standardized loadings and 95% confidence levels are shown. Illustratively depicted is the second order Higher Consciousness factor represented by dotted lines.&lt;br&gt;&lt;/p&gt;" style="text;html=1;strokeColor=none;fillColor=none;spacing=5;spacingTop=-20;whiteSpace=wrap;overflow=hidden;rounded=0;" parent="1" vertex="1">
          <mxGeometry x="10" y="61" width="696" height="63" as="geometry" />
        </mxCell>
        <mxCell id="AyuZund40e7lfLbwNVDC-1" value="Unity-Consciousness" style="ellipse;whiteSpace=wrap;html=1;fontSize=12;" parent="1" vertex="1">
          <mxGeometry x="40" y="216.0476234855545" width="120.89759797724399" height="73.9049394221808" as="geometry" />
        </mxCell>
        <mxCell id="AyuZund40e7lfLbwNVDC-3" value="&lt;div style=&quot;font-size: 12px;&quot;&gt;Bliss&lt;/div&gt;" style="ellipse;whiteSpace=wrap;html=1;fontSize=12;" parent="1" vertex="1">
          <mxGeometry x="40" y="404.37643056849953" width="120.89759797724399" height="73.9049394221808" as="geometry" />
        </mxCell>
        <mxCell id="AyuZund40e7lfLbwNVDC-12" value="&lt;div style=&quot;font-size: 12px;&quot;&gt;Energy&lt;/div&gt;" style="ellipse;whiteSpace=wrap;html=1;fontSize=12;" parent="1" vertex="1">
          <mxGeometry x="40" y="638.329888164026" width="120.89759797724399" height="73.9049394221808" as="geometry" />
        </mxCell>
        <mxCell id="AyuZund40e7lfLbwNVDC-15" value="&lt;div style=&quot;font-size: 12px;&quot;&gt;Light&lt;/div&gt;" style="ellipse;whiteSpace=wrap;html=1;fontSize=12;" parent="1" vertex="1">
          <mxGeometry x="40" y="739.9950605778191" width="120.89759797724399" height="73.9049394221808" as="geometry" />
        </mxCell>
        <mxCell id="AyuZund40e7lfLbwNVDC-32" value="" style="endArrow=classic;html=1;rounded=0;entryX=0;entryY=0.5;entryDx=0;entryDy=0;exitX=1;exitY=0.5;exitDx=0;exitDy=0;fontSize=12;" parent="1" source="AyuZund40e7lfLbwNVDC-3" target="AyuZund40e7lfLbwNVDC-28" edge="1">
          <mxGeometry width="50" height="50" relative="1" as="geometry">
            <mxPoint x="144.1213653603034" y="375.94594594594594" as="sourcePoint" />
            <mxPoint x="269.63337547408344" y="339.5992544268407" as="targetPoint" />
          </mxGeometry>
        </mxCell>
        <mxCell id="AyuZund40e7lfLbwNVDC-60" value=".86 [.83, .88]" style="edgeLabel;html=1;align=center;verticalAlign=middle;resizable=0;points=[];fontSize=12;" parent="AyuZund40e7lfLbwNVDC-32" vertex="1" connectable="0">
          <mxGeometry relative="1" as="geometry">
            <mxPoint as="offset" />
          </mxGeometry>
        </mxCell>
        <mxCell id="AyuZund40e7lfLbwNVDC-33" value="" style="endArrow=classic;html=1;rounded=0;entryX=0;entryY=0.5;entryDx=0;entryDy=0;exitX=1;exitY=0.5;exitDx=0;exitDy=0;fontSize=12;" parent="1" source="AyuZund40e7lfLbwNVDC-3" target="AyuZund40e7lfLbwNVDC-29" edge="1">
          <mxGeometry width="50" height="50" relative="1" as="geometry">
            <mxPoint x="153.35018963337546" y="388.06150978564773" as="sourcePoint" />
            <mxPoint x="278.86219974715544" y="351.7148182665424" as="targetPoint" />
          </mxGeometry>
        </mxCell>
        <mxCell id="AyuZund40e7lfLbwNVDC-61" value=".90 [.87, .93]" style="edgeLabel;html=1;align=center;verticalAlign=middle;resizable=0;points=[];fontSize=12;" parent="AyuZund40e7lfLbwNVDC-33" vertex="1" connectable="0">
          <mxGeometry relative="1" as="geometry">
            <mxPoint as="offset" />
          </mxGeometry>
        </mxCell>
        <mxCell id="AyuZund40e7lfLbwNVDC-34" value="" style="endArrow=classic;html=1;rounded=0;entryX=0;entryY=0.5;entryDx=0;entryDy=0;exitX=1;exitY=0.5;exitDx=0;exitDy=0;fontSize=12;" parent="1" source="AyuZund40e7lfLbwNVDC-3" target="AyuZund40e7lfLbwNVDC-30" edge="1">
          <mxGeometry width="50" height="50" relative="1" as="geometry">
            <mxPoint x="144.1213653603034" y="484.98602050326195" as="sourcePoint" />
            <mxPoint x="269.63337547408344" y="448.6393289841566" as="targetPoint" />
          </mxGeometry>
        </mxCell>
        <mxCell id="AyuZund40e7lfLbwNVDC-62" value=".83 [.79, .86]" style="edgeLabel;html=1;align=center;verticalAlign=middle;resizable=0;points=[];fontSize=12;" parent="AyuZund40e7lfLbwNVDC-34" vertex="1" connectable="0">
          <mxGeometry relative="1" as="geometry">
            <mxPoint as="offset" />
          </mxGeometry>
        </mxCell>
        <mxCell id="AyuZund40e7lfLbwNVDC-35" value="Insight" style="ellipse;whiteSpace=wrap;html=1;fontSize=12;" parent="1" vertex="1">
          <mxGeometry x="40" y="512.9958247903076" width="120.89759797724399" height="73.9049394221808" as="geometry" />
        </mxCell>
        <mxCell id="AyuZund40e7lfLbwNVDC-39" value="" style="endArrow=classic;html=1;rounded=0;entryX=0;entryY=0.5;entryDx=0;entryDy=0;exitX=1;exitY=0.5;exitDx=0;exitDy=0;fontSize=12;" parent="1" source="AyuZund40e7lfLbwNVDC-35" target="AyuZund40e7lfLbwNVDC-36" edge="1">
          <mxGeometry width="50" height="50" relative="1" as="geometry">
            <mxPoint x="144.1213653603034" y="484.98602050326195" as="sourcePoint" />
            <mxPoint x="270.5562579013906" y="448.6393289841566" as="targetPoint" />
          </mxGeometry>
        </mxCell>
        <mxCell id="AyuZund40e7lfLbwNVDC-63" value=".82 [.79, .86]" style="edgeLabel;html=1;align=center;verticalAlign=middle;resizable=0;points=[];fontSize=12;" parent="AyuZund40e7lfLbwNVDC-39" vertex="1" connectable="0">
          <mxGeometry relative="1" as="geometry">
            <mxPoint as="offset" />
          </mxGeometry>
        </mxCell>
        <mxCell id="AyuZund40e7lfLbwNVDC-40" value="" style="endArrow=classic;html=1;rounded=0;entryX=0;entryY=0.5;entryDx=0;entryDy=0;exitX=1;exitY=0.5;exitDx=0;exitDy=0;fontSize=12;" parent="1" source="AyuZund40e7lfLbwNVDC-35" target="AyuZund40e7lfLbwNVDC-37" edge="1">
          <mxGeometry width="50" height="50" relative="1" as="geometry">
            <mxPoint x="153.35018963337546" y="497.1015843429637" as="sourcePoint" />
            <mxPoint x="279.7850821744627" y="460.7548928238583" as="targetPoint" />
          </mxGeometry>
        </mxCell>
        <mxCell id="AyuZund40e7lfLbwNVDC-64" value=".83 [.79, .86]" style="edgeLabel;html=1;align=center;verticalAlign=middle;resizable=0;points=[];fontSize=12;" parent="AyuZund40e7lfLbwNVDC-40" vertex="1" connectable="0">
          <mxGeometry relative="1" as="geometry">
            <mxPoint as="offset" />
          </mxGeometry>
        </mxCell>
        <mxCell id="AyuZund40e7lfLbwNVDC-44" value="" style="endArrow=classic;html=1;rounded=0;entryX=0;entryY=0.5;entryDx=0;entryDy=0;exitX=1;exitY=0.5;exitDx=0;exitDy=0;fontSize=12;" parent="1" source="AyuZund40e7lfLbwNVDC-12" target="AyuZund40e7lfLbwNVDC-41" edge="1">
          <mxGeometry width="50" height="50" relative="1" as="geometry">
            <mxPoint x="144.1213653603034" y="600.2758620689655" as="sourcePoint" />
            <mxPoint x="270.5562579013906" y="617.237651444548" as="targetPoint" />
          </mxGeometry>
        </mxCell>
        <mxCell id="AyuZund40e7lfLbwNVDC-65" value=".94 [.91, .97]" style="edgeLabel;html=1;align=center;verticalAlign=middle;resizable=0;points=[];fontSize=12;" parent="AyuZund40e7lfLbwNVDC-44" vertex="1" connectable="0">
          <mxGeometry relative="1" as="geometry">
            <mxPoint as="offset" />
          </mxGeometry>
        </mxCell>
        <mxCell id="AyuZund40e7lfLbwNVDC-45" value="" style="endArrow=classic;html=1;rounded=0;entryX=0;entryY=0.5;entryDx=0;entryDy=0;exitX=1;exitY=0.5;exitDx=0;exitDy=0;fontSize=12;" parent="1" source="AyuZund40e7lfLbwNVDC-12" target="AyuZund40e7lfLbwNVDC-42" edge="1">
          <mxGeometry width="50" height="50" relative="1" as="geometry">
            <mxPoint x="153.35018963337546" y="612.3914259086673" as="sourcePoint" />
            <mxPoint x="279.7850821744627" y="629.3532152842498" as="targetPoint" />
          </mxGeometry>
        </mxCell>
        <mxCell id="AyuZund40e7lfLbwNVDC-66" value=".87 [.84, .90]" style="edgeLabel;html=1;align=center;verticalAlign=middle;resizable=0;points=[];fontSize=12;" parent="AyuZund40e7lfLbwNVDC-45" vertex="1" connectable="0">
          <mxGeometry relative="1" as="geometry">
            <mxPoint as="offset" />
          </mxGeometry>
        </mxCell>
        <mxCell id="AyuZund40e7lfLbwNVDC-46" value="" style="endArrow=classic;html=1;rounded=0;entryX=0;entryY=0.5;entryDx=0;entryDy=0;exitX=1;exitY=0.5;exitDx=0;exitDy=0;fontSize=12;" parent="1" source="AyuZund40e7lfLbwNVDC-12" target="AyuZund40e7lfLbwNVDC-43" edge="1">
          <mxGeometry width="50" height="50" relative="1" as="geometry">
            <mxPoint x="162.57901390644753" y="624.506989748369" as="sourcePoint" />
            <mxPoint x="289.01390644753474" y="641.4687791239515" as="targetPoint" />
          </mxGeometry>
        </mxCell>
        <mxCell id="AyuZund40e7lfLbwNVDC-67" value=".87 [.83, .90]" style="edgeLabel;html=1;align=center;verticalAlign=middle;resizable=0;points=[];fontSize=12;" parent="AyuZund40e7lfLbwNVDC-46" vertex="1" connectable="0">
          <mxGeometry relative="1" as="geometry">
            <mxPoint as="offset" />
          </mxGeometry>
        </mxCell>
        <mxCell id="AyuZund40e7lfLbwNVDC-49" value="" style="endArrow=classic;html=1;rounded=0;entryX=0;entryY=0.5;entryDx=0;entryDy=0;exitX=1;exitY=0.5;exitDx=0;exitDy=0;fontSize=12;" parent="1" source="AyuZund40e7lfLbwNVDC-15" target="AyuZund40e7lfLbwNVDC-47" edge="1">
          <mxGeometry width="50" height="50" relative="1" as="geometry">
            <mxPoint x="144.1213653603034" y="688.7194780987884" as="sourcePoint" />
            <mxPoint x="269.63337547408344" y="723.8546132339237" as="targetPoint" />
          </mxGeometry>
        </mxCell>
        <mxCell id="AyuZund40e7lfLbwNVDC-68" value=".92 [.89, .95]" style="edgeLabel;html=1;align=center;verticalAlign=middle;resizable=0;points=[];fontSize=12;" parent="AyuZund40e7lfLbwNVDC-49" vertex="1" connectable="0">
          <mxGeometry relative="1" as="geometry">
            <mxPoint as="offset" />
          </mxGeometry>
        </mxCell>
        <mxCell id="AyuZund40e7lfLbwNVDC-50" value="" style="endArrow=classic;html=1;rounded=0;entryX=0;entryY=0.5;entryDx=0;entryDy=0;exitX=1;exitY=0.5;exitDx=0;exitDy=0;fontSize=12;" parent="1" source="AyuZund40e7lfLbwNVDC-15" target="AyuZund40e7lfLbwNVDC-48" edge="1">
          <mxGeometry width="50" height="50" relative="1" as="geometry">
            <mxPoint x="153.35018963337546" y="700.8350419384902" as="sourcePoint" />
            <mxPoint x="278.86219974715544" y="735.9701770736255" as="targetPoint" />
          </mxGeometry>
        </mxCell>
        <mxCell id="AyuZund40e7lfLbwNVDC-69" value=".92 [.89, .95]" style="edgeLabel;html=1;align=center;verticalAlign=middle;resizable=0;points=[];fontSize=12;" parent="AyuZund40e7lfLbwNVDC-50" vertex="1" connectable="0">
          <mxGeometry relative="1" as="geometry">
            <mxPoint as="offset" />
          </mxGeometry>
        </mxCell>
        <mxCell id="AyuZund40e7lfLbwNVDC-7" value="" style="endArrow=classic;html=1;rounded=0;exitX=1;exitY=0.5;exitDx=0;exitDy=0;entryX=0;entryY=0.5;entryDx=0;entryDy=0;fontSize=12;" parent="1" source="AyuZund40e7lfLbwNVDC-1" target="AyuZund40e7lfLbwNVDC-4" edge="1">
          <mxGeometry width="50" height="50" relative="1" as="geometry">
            <mxPoint x="252.09860935524654" y="423.1966449207828" as="sourcePoint" />
            <mxPoint x="298.2427307206068" y="362.618825722274" as="targetPoint" />
          </mxGeometry>
        </mxCell>
        <mxCell id="AyuZund40e7lfLbwNVDC-52" value=".87 [.84, .89]" style="edgeLabel;html=1;align=center;verticalAlign=middle;resizable=0;points=[];spacingBottom=30;fontSize=12;" parent="AyuZund40e7lfLbwNVDC-7" vertex="1" connectable="0">
          <mxGeometry relative="1" as="geometry">
            <mxPoint as="offset" />
          </mxGeometry>
        </mxCell>
        <mxCell id="AyuZund40e7lfLbwNVDC-27" value="" style="endArrow=classic;html=1;rounded=0;entryX=0;entryY=0.5;entryDx=0;entryDy=0;exitX=1;exitY=0.5;exitDx=0;exitDy=0;fontSize=12;" parent="1" source="AyuZund40e7lfLbwNVDC-1" target="AyuZund40e7lfLbwNVDC-22" edge="1">
          <mxGeometry width="50" height="50" relative="1" as="geometry">
            <mxPoint x="144.1213653603034" y="362.618825722274" as="sourcePoint" />
            <mxPoint x="288.09102402022756" y="327.4836905871389" as="targetPoint" />
          </mxGeometry>
        </mxCell>
        <mxCell id="AyuZund40e7lfLbwNVDC-59" value=".87 [.85, .90]" style="edgeLabel;html=1;align=center;verticalAlign=middle;resizable=0;points=[];labelBorderColor=none;spacingTop=30;fontSize=12;" parent="AyuZund40e7lfLbwNVDC-27" vertex="1" connectable="0">
          <mxGeometry relative="1" as="geometry">
            <mxPoint as="offset" />
          </mxGeometry>
        </mxCell>
        <mxCell id="AyuZund40e7lfLbwNVDC-26" value="" style="endArrow=classic;html=1;rounded=0;entryX=0;entryY=0.5;entryDx=0;entryDy=0;exitX=1;exitY=0.5;exitDx=0;exitDy=0;fontSize=12;" parent="1" source="AyuZund40e7lfLbwNVDC-1" target="AyuZund40e7lfLbwNVDC-21" edge="1">
          <mxGeometry width="50" height="50" relative="1" as="geometry">
            <mxPoint x="144.1213653603034" y="362.01304753028893" as="sourcePoint" />
            <mxPoint x="278.86219974715544" y="315.36812674743703" as="targetPoint" />
          </mxGeometry>
        </mxCell>
        <mxCell id="AyuZund40e7lfLbwNVDC-58" value=".87 [.84, .89]" style="edgeLabel;html=1;align=center;verticalAlign=middle;resizable=0;points=[];spacingTop=16;fontSize=12;" parent="AyuZund40e7lfLbwNVDC-26" vertex="1" connectable="0">
          <mxGeometry relative="1" as="geometry">
            <mxPoint as="offset" />
          </mxGeometry>
        </mxCell>
        <mxCell id="AyuZund40e7lfLbwNVDC-8" value="" style="endArrow=classic;html=1;rounded=0;exitX=1;exitY=0.5;exitDx=0;exitDy=0;entryX=0;entryY=0.5;entryDx=0;entryDy=0;fontSize=12;" parent="1" source="AyuZund40e7lfLbwNVDC-1" target="AyuZund40e7lfLbwNVDC-5" edge="1">
          <mxGeometry width="50" height="50" relative="1" as="geometry">
            <mxPoint x="252.09860935524654" y="423.1966449207828" as="sourcePoint" />
            <mxPoint x="298.2427307206068" y="362.618825722274" as="targetPoint" />
          </mxGeometry>
        </mxCell>
        <mxCell id="AyuZund40e7lfLbwNVDC-53" value=".92 [.90, .94]" style="edgeLabel;html=1;align=center;verticalAlign=middle;resizable=0;points=[];spacingBottom=16;fontSize=12;" parent="AyuZund40e7lfLbwNVDC-8" vertex="1" connectable="0">
          <mxGeometry relative="1" as="geometry">
            <mxPoint as="offset" />
          </mxGeometry>
        </mxCell>
        <mxCell id="AyuZund40e7lfLbwNVDC-9" value="" style="endArrow=classic;html=1;rounded=0;exitX=1;exitY=0.5;exitDx=0;exitDy=0;entryX=0;entryY=0.5;entryDx=0;entryDy=0;fontSize=12;" parent="1" source="AyuZund40e7lfLbwNVDC-1" target="AyuZund40e7lfLbwNVDC-6" edge="1">
          <mxGeometry width="50" height="50" relative="1" as="geometry">
            <mxPoint x="159.81036662452595" y="386.8499534016775" as="sourcePoint" />
            <mxPoint x="205.95448798988622" y="326.27213420316866" as="targetPoint" />
          </mxGeometry>
        </mxCell>
        <mxCell id="AyuZund40e7lfLbwNVDC-54" value=".87 [.84, .89]" style="edgeLabel;html=1;align=center;verticalAlign=middle;resizable=0;points=[];spacingBottom=3;fontSize=12;" parent="AyuZund40e7lfLbwNVDC-9" vertex="1" connectable="0">
          <mxGeometry relative="1" as="geometry">
            <mxPoint as="offset" />
          </mxGeometry>
        </mxCell>
        <mxCell id="AyuZund40e7lfLbwNVDC-25" value="" style="endArrow=classic;html=1;rounded=0;entryX=0;entryY=0.5;entryDx=0;entryDy=0;exitX=1;exitY=0.5;exitDx=0;exitDy=0;fontSize=12;" parent="1" source="AyuZund40e7lfLbwNVDC-1" target="AyuZund40e7lfLbwNVDC-20" edge="1">
          <mxGeometry width="50" height="50" relative="1" as="geometry">
            <mxPoint x="144.1213653603034" y="362.01304753028893" as="sourcePoint" />
            <mxPoint x="269.63337547408344" y="303.25256290773535" as="targetPoint" />
          </mxGeometry>
        </mxCell>
        <mxCell id="AyuZund40e7lfLbwNVDC-57" value=".67 [.62, .72]" style="edgeLabel;html=1;align=center;verticalAlign=middle;resizable=0;points=[];spacingTop=3;fontSize=12;" parent="AyuZund40e7lfLbwNVDC-25" vertex="1" connectable="0">
          <mxGeometry relative="1" as="geometry">
            <mxPoint as="offset" />
          </mxGeometry>
        </mxCell>
        <mxCell id="AyuZund40e7lfLbwNVDC-19" value="" style="endArrow=classic;html=1;rounded=0;entryX=0;entryY=0.5;entryDx=0;entryDy=0;exitX=1;exitY=0.5;exitDx=0;exitDy=0;fontSize=12;" parent="1" source="AyuZund40e7lfLbwNVDC-1" target="AyuZund40e7lfLbwNVDC-17" edge="1">
          <mxGeometry width="50" height="50" relative="1" as="geometry">
            <mxPoint x="132.1238938053097" y="253.57875116495805" as="sourcePoint" />
            <mxPoint x="278.86219974715544" y="242.67474370922645" as="targetPoint" />
          </mxGeometry>
        </mxCell>
        <mxCell id="AyuZund40e7lfLbwNVDC-56" value=".89 [.87, .91]" style="edgeLabel;html=1;align=center;verticalAlign=middle;resizable=0;points=[];spacingTop=0;fontSize=12;" parent="AyuZund40e7lfLbwNVDC-19" vertex="1" connectable="0">
          <mxGeometry relative="1" as="geometry">
            <mxPoint as="offset" />
          </mxGeometry>
        </mxCell>
        <mxCell id="ogwkNkthknCJ-jp4AeTu-4" value="" style="endArrow=classic;html=1;rounded=0;entryX=0;entryY=0.5;entryDx=0;entryDy=0;exitX=1;exitY=0.5;exitDx=0;exitDy=0;fontSize=12;" parent="1" source="AyuZund40e7lfLbwNVDC-35" target="ogwkNkthknCJ-jp4AeTu-2" edge="1">
          <mxGeometry width="50" height="50" relative="1" as="geometry">
            <mxPoint x="171" y="571" as="sourcePoint" />
            <mxPoint x="271" y="591" as="targetPoint" />
          </mxGeometry>
        </mxCell>
        <mxCell id="ogwkNkthknCJ-jp4AeTu-5" value=".87 [.83, .90]" style="edgeLabel;html=1;align=center;verticalAlign=middle;resizable=0;points=[];fontSize=12;" parent="ogwkNkthknCJ-jp4AeTu-4" vertex="1" connectable="0">
          <mxGeometry relative="1" as="geometry">
            <mxPoint as="offset" />
          </mxGeometry>
        </mxCell>
        <mxCell id="AyuZund40e7lfLbwNVDC-4" value="m6. New knowledge / awareness of the unbounded intelligence behind universe" style="rounded=0;whiteSpace=wrap;html=1;align=left;spacingLeft=3;fontSize=12;spacingTop=4;" parent="1" vertex="1">
          <mxGeometry x="260.4998971635478" y="130" width="508" height="22" as="geometry" />
        </mxCell>
        <mxCell id="AyuZund40e7lfLbwNVDC-5" value="&lt;div style=&quot;font-size: 12px;&quot;&gt;m22. Expansion of consciousness&lt;/div&gt;" style="rounded=0;whiteSpace=wrap;html=1;align=left;spacingLeft=3;fontSize=12;spacingTop=4;" parent="1" vertex="1">
          <mxGeometry x="260.4998971635478" y="167.00049368782845" width="508" height="22" as="geometry" />
        </mxCell>
        <mxCell id="AyuZund40e7lfLbwNVDC-6" value="m25. An experience of union with the Divine/God or universal consciousness" style="rounded=0;whiteSpace=wrap;html=1;align=left;spacingLeft=3;fontSize=12;spacingTop=4;" parent="1" vertex="1">
          <mxGeometry x="260.4998971635478" y="205.00100071857116" width="508" height="22" as="geometry" />
        </mxCell>
        <mxCell id="AyuZund40e7lfLbwNVDC-17" value="m15. Expanded comprehension of reality" style="rounded=0;whiteSpace=wrap;html=1;align=left;spacingLeft=3;fontSize=12;spacingTop=4;" parent="1" vertex="1">
          <mxGeometry x="259.48" y="242.00149440639962" width="508" height="22" as="geometry" />
        </mxCell>
        <mxCell id="AyuZund40e7lfLbwNVDC-20" value="m8. Loss of fear of death / certainty of immortality" style="rounded=0;whiteSpace=wrap;html=1;align=left;spacingLeft=3;fontSize=12;spacingTop=4;" parent="1" vertex="1">
          <mxGeometry x="259.48" y="279.00198809422807" width="508" height="22" as="geometry" />
        </mxCell>
        <mxCell id="AyuZund40e7lfLbwNVDC-21" value="m13. All sense of separateness disappears" style="rounded=0;whiteSpace=wrap;html=1;align=left;spacingLeft=3;fontSize=12;spacingTop=4;" parent="1" vertex="1">
          <mxGeometry x="259.48" y="316.0024817820565" width="508" height="22" as="geometry" />
        </mxCell>
        <mxCell id="AyuZund40e7lfLbwNVDC-22" value="m10. Increased feelings of unity with creation" style="rounded=0;whiteSpace=wrap;html=1;align=left;spacingLeft=3;fontSize=12;spacingTop=4;" parent="1" vertex="1">
          <mxGeometry x="260.5030925759769" y="354.00298881279923" width="508" height="22" as="geometry" />
        </mxCell>
        <mxCell id="AyuZund40e7lfLbwNVDC-28" value="m5. Overwhelming sense of love" style="rounded=0;whiteSpace=wrap;html=1;align=left;spacingLeft=3;fontSize=12;spacingTop=4;" parent="1" vertex="1">
          <mxGeometry x="261.5229897395246" y="391.0034825006277" width="508" height="22" as="geometry" />
        </mxCell>
        <mxCell id="AyuZund40e7lfLbwNVDC-29" value="m7. Overwhelming sense of wonder and awe" style="rounded=0;whiteSpace=wrap;html=1;align=left;spacingLeft=3;fontSize=12;spacingTop=4;" parent="1" vertex="1">
          <mxGeometry x="261.5229897395246" y="428.00397618845614" width="508" height="22" as="geometry" />
        </mxCell>
        <mxCell id="AyuZund40e7lfLbwNVDC-30" value="m4. Intense feeling of peace" style="rounded=0;whiteSpace=wrap;html=1;align=left;spacingLeft=3;fontSize=12;spacingTop=4;" parent="1" vertex="1">
          <mxGeometry x="261.5229897395246" y="466.00448321919885" width="508" height="22" as="geometry" />
        </mxCell>
        <mxCell id="AyuZund40e7lfLbwNVDC-36" value="s3. An unshakable conviction about the reality of the experience" style="rounded=0;whiteSpace=wrap;html=1;align=left;spacingLeft=3;fontSize=12;spacingTop=4;" parent="1" vertex="1">
          <mxGeometry x="261.5229897395246" y="503.0049769070273" width="508" height="22" as="geometry" />
        </mxCell>
        <mxCell id="AyuZund40e7lfLbwNVDC-37" value="&lt;div&gt;s2. New understanding of spiritual truths/Insight into the inner meaning of spiritual teachings&lt;/div&gt;" style="rounded=0;whiteSpace=wrap;html=1;align=left;spacingLeft=3;fontSize=12;" parent="1" vertex="1">
          <mxGeometry x="261.52583477778387" y="540.0054705948558" width="508" height="22" as="geometry" />
        </mxCell>
        <mxCell id="AyuZund40e7lfLbwNVDC-41" value="p5. Feelings of energy flowing or vibrating within" style="rounded=0;whiteSpace=wrap;html=1;align=left;spacingLeft=3;fontSize=12;spacingTop=4;" parent="1" vertex="1">
          <mxGeometry x="260.4998971635478" y="627.2866351644143" width="508" height="22" as="geometry" />
        </mxCell>
        <mxCell id="AyuZund40e7lfLbwNVDC-42" value="p3. Sensations of energy rushing up the spine" style="rounded=0;whiteSpace=wrap;html=1;align=left;spacingLeft=3;fontSize=12;spacingTop=4;" parent="1" vertex="1">
          <mxGeometry x="260.4998971635478" y="664.2871288522427" width="508" height="22" as="geometry" />
        </mxCell>
        <mxCell id="AyuZund40e7lfLbwNVDC-43" value="&lt;div&gt;p9. Sensations of energy along the seven major chakras / base of spine to crown of head&lt;/div&gt;" style="rounded=0;whiteSpace=wrap;html=1;align=left;spacingLeft=3;fontSize=12;" parent="1" vertex="1">
          <mxGeometry x="261.52583477778387" y="701.2876225400712" width="508" height="22" as="geometry" />
        </mxCell>
        <mxCell id="AyuZund40e7lfLbwNVDC-47" value="p11. Sensations of white light or luminosity" style="rounded=0;whiteSpace=wrap;html=1;align=left;spacingLeft=3;fontSize=12;spacingTop=4;" parent="1" vertex="1">
          <mxGeometry x="261.5229897395246" y="750.008272606855" width="508" height="22" as="geometry" />
        </mxCell>
        <mxCell id="AyuZund40e7lfLbwNVDC-48" value="p1. Visions of light" style="rounded=0;whiteSpace=wrap;html=1;align=left;spacingLeft=3;fontSize=12;spacingTop=4;" parent="1" vertex="1">
          <mxGeometry x="261.5229897395246" y="787.009856709978" width="508" height="22" as="geometry" />
        </mxCell>
        <mxCell id="ogwkNkthknCJ-jp4AeTu-2" value="s26. A profound insight into the inner workings of the Cosmos" style="rounded=0;whiteSpace=wrap;html=1;align=left;spacingLeft=3;fontSize=12;spacingTop=4;" parent="1" vertex="1">
          <mxGeometry x="260.4998971635478" y="590.2861414765858" width="508" height="22" as="geometry" />
        </mxCell>
      </root>
    </mxGraphModel>
  </diagram>
</mxfile>
